# xmcd
#
# Track frame offsets:
# 150
# 9854
# 17420
# 30229
# 40659
# 53956
# 65800
# 76141
# 86957
# 98430
# 108549
# 121409
#
# Disc length: 1780 seconds
#
# Revision: 0
# Processed by: cddbd v1.5.2PL0 Copyright (c) Steve Scherf et al.
# Submitted via: Axialis_AX_CDPlayer 2.6
#
DISCID=8506f20c
DTITLE=Faron Young - YOUNG Faron - Country Hero
DYEAR=1900
DGENRE=
TTITLE0=Hello Walls
TTITLE1=Backtrack
TTITLE2=Country Girl
TTITLE3=Alone With You
TTITLE4=Three Days
TTITLE5=Riverboat
TTITLE6=If You Ain't Lovin'
TTITLE7=Face to The Wall
TTITLE8=You're Still Mine
TTITLE9=Congratulations
TTITLE10=I'm A Free Man Now
TTITLE11=It's Four in The Morning
EXTD=
EXTT0=
EXTT1=
EXTT2=
EXTT3=
EXTT4=
EXTT5=
EXTT6=
EXTT7=
EXTT8=
EXTT9=
EXTT10=
EXTT11=
PLAYORDER=
